<?xml version="1.0" encoding="utf-8"?>
<!-- Uploaded to: SVG Repo, www.svgrepo.com, Generator: SVG Repo Mixer Tools -->
<svg width="800px" height="800px" viewBox="0 0 1024 1024" class="icon"  version="1.1" xmlns="http://www.w3.org/2000/svg"><path d="M889 471.8v87.7c0 9.7-7.9 17.4-17.4 17.4H132.5c-9.6 0-17.3-7.7-17.3-17.4v-87.7c0-9.6 7.7-17.4 17.3-17.4h739.1c9.5 0 17.4 7.8 17.4 17.4z" fill="#FFD96E" /><path d="M831.1 582.9h12.1v6h-12.1z" fill="#CC9212" /><path d="M831.1 588.9v176.9c0 16.6-13.7 30.2-30.2 30.2H203.3c-16.7 0-30.2-13.7-30.2-30.2V588.9h658z" fill="#FCBB02" /><path d="M815.6 381.3l-261.9 49.2v-59.6l174.6-159.3-25.9 124.1z" fill="#FF6EA9" /><path d="M556.4 442.3l-14.8 2.7v-2.7z" fill="#CC9212" /><path d="M728.3 211.6L553.7 370.9v59.6l261.9-49.2-113.2-45.6 25.9-124.1z m130.2 173.8l-302.1 56.8h-14.8v-68h6v-12.1h-2.3l202.4-184.9-31.4 150.9 142.2 57.3z" fill="#CE1B6D" /><path d="M541.6 365.6l3.8-3.4h2.3v12.1h-6.1z" fill="#CE1B6D" /><path d="M545.4 362.2l-3.8 3.4v8.7h-79.1v-8.7l-3.7-3.4z" fill="#CE1B6D" /><path d="M462.5 374.3h79.1v68h-79.1z" fill="#FF6EA9" /><path d="M456.5 374.3v-12.1h2.3l3.7 3.4v8.7z" fill="#CE1B6D" /><path d="M450.4 370.9v59.6l-262-49.2 113.3-45.6-26-124.1z" fill="#FF6EA9" /><path d="M462.5 445l-14.7-2.7h14.7z" fill="#CC9212" /><path d="M188.4 381.3l262 49.2v-59.6L275.7 211.6l26 124.2-113.3 45.5z m259.4 61l-302.3-56.8 142.3-57.2-31.6-150.9 202.5 184.9h-2.3v12.1h6v68h-14.6z" fill="#CE1B6D" /><path d="M203.3 808.1c-23.3 0-42.3-19.1-42.3-42.3V588.9h12.1v176.9c0 16.6 13.5 30.2 30.2 30.2h597.5c16.6 0 30.2-13.7 30.2-30.2V588.9h12.1v176.9c0 23.2-19 42.3-42.3 42.3H203.3zM161 582.9h12.1v6H161z" fill="#CC9212" /><path d="M132.5 454.4c-9.6 0-17.3 7.9-17.3 17.4v87.7c0 9.7 7.7 17.4 17.3 17.4h739.1c9.6 0 17.4-7.7 17.4-17.4v-87.7c0-9.6-7.9-17.4-17.4-17.4H132.5z m-29.4 17.4c0-16.2 13.2-29.5 29.4-29.5h315.3l14.8 2.8v-2.8h79.1v2.8l14.8-2.8h315.2c16.2 0 29.5 13.3 29.5 29.5v87.7c0 16.3-13.3 29.5-29.5 29.5h-28.4v-6h-12.1v6h-658v-6H161v6h-28.5c-16.2 0-29.4-13.2-29.4-29.5v-87.7z" fill="#CC9212" /></svg>